<svg width="304" height="271" viewBox="0 0 304 271" fill="none" xmlns="http://www.w3.org/2000/svg">
<path d="M53.8257 110.496C83.2012 110.496 107.015 85.9546 107.015 55.6811C107.015 25.4076 83.2012 0.866089 53.8257 0.866089C24.4502 0.866089 0.636719 25.4076 0.636719 55.6811C0.636719 85.9546 24.4502 110.496 53.8257 110.496Z" fill="#B1B4C5"/>
<path d="M53.8257 105.636C83.2012 105.636 107.015 82.1825 107.015 53.2511C107.015 24.3197 83.2012 0.866089 53.8257 0.866089C24.4502 0.866089 0.636719 24.3197 0.636719 53.2511C0.636719 82.1825 24.4502 105.636 53.8257 105.636Z" fill="url(#paint0_linear_2365_4)"/>
<path d="M53.8242 95.3751C76.3751 95.3751 94.6562 76.9991 94.6562 54.3311C94.6562 31.6631 76.3751 13.2871 53.8242 13.2871C31.2733 13.2871 12.9922 31.6631 12.9922 54.3311C12.9922 76.9991 31.2733 95.3751 53.8242 95.3751Z" fill="#E1E4ED"/>
<path d="M69.6873 43.7041C69.4002 43.5903 69.0917 43.5405 68.7833 43.5581C68.3663 43.5881 68.0283 43.7591 67.8283 44.0391C66.6513 45.7051 65.6873 48.8491 64.9093 51.3761C64.5523 52.5451 64.0733 54.1091 63.7263 54.8511C63.3643 52.7711 63.7733 45.1541 63.9323 42.2211L63.9343 42.1741C64.0443 40.1361 64.0593 39.7781 64.0343 39.6211C63.8603 38.5031 63.4163 37.7691 62.7153 37.4411C62.0073 37.1081 61.0863 37.2551 60.0953 37.8581C59.5983 38.1611 59.4603 39.2031 59.0343 43.9251L59.0323 43.9451C58.7973 46.5401 58.2563 52.5131 57.5913 53.5081C56.8413 52.1161 55.8073 44.2081 55.3613 40.7861C55.0493 38.3891 54.8673 37.0121 54.7453 36.5961C54.4883 35.7261 53.4023 34.9851 52.3273 34.9431C51.4323 34.8991 50.6983 35.3581 50.3473 36.1571C49.6923 36.8931 49.9243 39.3361 50.6493 45.1211C50.9933 47.8751 51.7053 53.5621 51.2573 54.2011C50.3643 54.1021 48.8303 50.5401 46.6983 43.6091C46.1003 41.6671 45.9153 41.0841 45.7313 40.8291C45.3693 39.9381 44.1383 39.2511 43.0353 39.3291C42.9424 39.3355 42.8499 39.3475 42.7583 39.3651C42.1803 39.4811 40.8623 40.0181 41.1433 42.4951C41.9223 45.9301 42.7673 48.4521 43.5883 50.9001L43.6043 50.9501C44.0953 52.4151 44.5593 53.8001 44.9913 55.3381C46.0073 58.9681 45.6123 61.2201 45.6073 61.2451C45.5733 61.4771 45.5023 61.6191 45.3963 61.6681C45.3511 61.6877 45.3026 61.6989 45.2533 61.7011C44.9313 61.7241 44.4483 61.5081 44.1983 61.3681C43.6303 60.2701 40.7983 55.0381 38.2313 54.3131L38.1403 54.2871L38.0473 54.2951C37.1053 54.3851 36.4133 54.7451 35.9903 55.3631C35.3203 56.3411 35.5973 57.5871 35.6653 57.8371L35.7033 57.9271C35.7233 57.9641 37.7823 61.7521 38.1003 63.5141C38.3753 65.0251 39.7963 66.6621 40.9383 67.9781L40.9853 68.0321C41.3583 68.4621 41.6803 68.8341 41.9333 69.1781C45.2493 72.6701 50.4913 75.6061 50.5343 75.6301C51.1883 76.1171 51.5523 76.5881 51.5903 76.9931C51.6085 77.1462 51.5666 77.3003 51.4733 77.4231L51.3593 77.5431L52.0843 78.2541L65.9163 77.2741L66.5063 74.5441C68.3293 66.8391 67.9483 60.2691 67.9423 60.2251C67.9493 59.9831 68.4603 57.6451 68.8723 55.7571L68.8833 55.7091C69.7033 51.9461 70.7213 47.2651 70.9173 45.4841C71.0023 44.7231 70.5193 44.0231 69.6873 43.7041Z" fill="#8A90AC"/>
<path d="M250.323 110.496C279.973 110.496 304.009 85.9546 304.009 55.6811C304.009 25.4076 279.973 0.866089 250.323 0.866089C220.673 0.866089 196.637 25.4076 196.637 55.6811C196.637 85.9546 220.673 110.496 250.323 110.496Z" fill="#B1B4C5"/>
<path d="M250.323 105.636C279.973 105.636 304.009 82.1825 304.009 53.2511C304.009 24.3197 279.973 0.866089 250.323 0.866089C220.673 0.866089 196.637 24.3197 196.637 53.2511C196.637 82.1825 220.673 105.636 250.323 105.636Z" fill="url(#paint1_linear_2365_4)"/>
<path d="M250.323 95.3751C273.085 95.3751 291.537 76.9991 291.537 54.3311C291.537 31.6631 273.085 13.2871 250.323 13.2871C227.562 13.2871 209.109 31.6631 209.109 54.3311C209.109 76.9991 227.562 95.3751 250.323 95.3751Z" fill="#E1E4ED"/>
<path d="M239.564 53.9792L244.015 47.7452C242.165 47.4382 238.767 47.3702 235.984 50.1422C231.596 54.5122 229.819 63.9512 229.449 66.2352L240.599 77.3402C242.607 77.1702 251.495 75.9872 260.059 67.4592C260.149 67.2752 262.236 65.7392 260.53 64.0412C259.716 63.2312 258.368 63.2452 257.537 64.0742C257.44 64.1743 257.325 64.2543 257.197 64.3094C257.069 64.3644 256.931 64.3935 256.792 64.3949C256.653 64.3963 256.514 64.37 256.385 64.3175C256.256 64.265 256.139 64.1874 256.04 64.0892C255.942 63.9913 255.864 63.8746 255.811 63.7461C255.758 63.6176 255.732 63.4799 255.733 63.341C255.735 63.2021 255.764 63.0649 255.819 62.9375C255.875 62.8101 255.955 62.6951 256.055 62.5992L259.081 59.5852C260.619 58.0532 259.17 55.4692 257.023 56.0902L254.546 58.2022C254.334 58.386 254.057 58.4784 253.776 58.4591C253.496 58.4398 253.235 58.3104 253.049 58.0992C252.665 57.6562 252.747 56.9852 253.184 56.6072C261.838 49.0452 260.574 49.9572 266.142 44.7592C268.222 43.0342 265.606 39.9832 263.556 41.7292L250.087 53.7932C249.894 53.9571 249.649 54.0458 249.395 54.043C249.142 54.0403 248.899 53.9462 248.709 53.7782C248.264 53.3952 248.254 52.8442 248.545 52.4082L257.94 37.8632C259.313 36.0112 256.61 33.9532 255.164 35.8212L241.273 55.1682C241.194 55.282 241.093 55.3789 240.976 55.4534C240.859 55.5279 240.728 55.5784 240.591 55.6021C240.455 55.6259 240.315 55.6223 240.179 55.5915C240.044 55.5608 239.916 55.5036 239.803 55.4232C239.691 55.3454 239.596 55.246 239.522 55.1307C239.449 55.0154 239.4 54.8866 239.378 54.7519C239.355 54.6173 239.36 54.4795 239.392 54.3467C239.424 54.214 239.483 54.089 239.564 53.9792Z" fill="#8A90AC"/>
<path d="M152.323 270.496C181.973 270.496 206.009 245.955 206.009 215.681C206.009 185.408 181.973 160.866 152.323 160.866C122.673 160.866 98.6367 185.408 98.6367 215.681C98.6367 245.955 122.673 270.496 152.323 270.496Z" fill="#B1B4C5"/>
<path d="M152.323 265.636C181.973 265.636 206.009 242.183 206.009 213.251C206.009 184.32 181.973 160.866 152.323 160.866C122.673 160.866 98.6367 184.32 98.6367 213.251C98.6367 242.183 122.673 265.636 152.323 265.636Z" fill="url(#paint2_linear_2365_4)"/>
<path d="M152.323 255.375C175.085 255.375 193.537 236.999 193.537 214.331C193.537 191.663 175.085 173.287 152.323 173.287C129.562 173.287 111.109 191.663 111.109 214.331C111.109 236.999 129.562 255.375 152.323 255.375Z" fill="#E1E4ED"/>
<path d="M168.29 208.437C167.815 202.44 161.082 203.052 161.082 203.052C158.24 198.042 153.801 201.671 153.801 201.671C150.391 196.76 146.114 201.311 146.114 201.311C138.741 200.515 139.027 206.545 139.027 206.545C138.854 208.462 140.067 214.392 140.067 214.392C138.973 210.974 136.6 213.811 136.6 213.811C133.683 218.313 135.879 220.778 135.879 220.778C139.826 225.404 148.236 230.958 148.236 230.958C151.282 232.703 149.993 234.258 149.993 234.258L168.413 231.214L168.837 227.72C171.637 219.248 168.29 208.436 168.29 208.436V208.437Z" fill="#8A90AC"/>
<path d="M141.252 29.3181C141.265 31.0471 140.004 31.8661 138.392 31.8661H135.48C135.389 31.8661 135.324 31.8011 135.324 31.7101V22.9221C135.324 22.8311 135.389 22.7661 135.48 22.7661H138.197C139.991 22.7661 141.122 23.5331 141.122 25.2621C141.122 26.1461 140.784 26.7441 140.121 27.1211C140.082 27.1471 140.069 27.1731 140.108 27.1991C140.836 27.6151 141.239 28.3041 141.252 29.3181ZM137.222 24.3391C137.183 24.3391 137.157 24.3651 137.157 24.4041V26.4451C137.157 26.4841 137.183 26.5101 137.222 26.5101H138.21C138.912 26.5101 139.328 26.1071 139.328 25.4311C139.328 24.7421 138.912 24.3391 138.21 24.3391H137.222ZM138.314 30.2801C139.003 30.2801 139.419 29.8641 139.419 29.1101C139.419 28.3691 139.003 27.9141 138.314 27.9141H137.222C137.183 27.9141 137.157 27.9401 137.157 27.9791V30.2151C137.157 30.2541 137.183 30.2801 137.222 30.2801H138.314Z" fill="#B1B4C5"/>
<path d="M147.934 24.1831C147.934 24.2741 147.869 24.3391 147.778 24.3391H144.294C144.255 24.3391 144.229 24.3651 144.229 24.4041V26.4321C144.229 26.4711 144.255 26.4971 144.294 26.4971H146.465C146.556 26.4971 146.621 26.5621 146.621 26.6531V27.9141C146.621 28.0051 146.556 28.0701 146.465 28.0701H144.294C144.255 28.0701 144.229 28.0961 144.229 28.1351V30.2281C144.229 30.2671 144.255 30.2931 144.294 30.2931H147.778C147.869 30.2931 147.934 30.3581 147.934 30.4491V31.7101C147.934 31.8011 147.869 31.8661 147.778 31.8661H142.552C142.461 31.8661 142.396 31.8011 142.396 31.7101V22.9221C142.396 22.8311 142.461 22.7661 142.552 22.7661H147.778C147.869 22.7661 147.934 22.8311 147.934 22.9221V24.1831Z" fill="#B1B4C5"/>
<path d="M153.999 31.8661C153.908 31.8661 153.856 31.8271 153.83 31.7361L153.531 30.4621C153.518 30.4231 153.505 30.4101 153.466 30.4101H151.035C150.996 30.4101 150.983 30.4231 150.97 30.4621L150.671 31.7361C150.645 31.8271 150.58 31.8661 150.489 31.8661H148.916C148.812 31.8661 148.76 31.8141 148.786 31.6971L151.126 22.8961C151.152 22.8051 151.217 22.7661 151.308 22.7661H153.193C153.284 22.7661 153.349 22.8051 153.375 22.8961L155.728 31.6971C155.754 31.8141 155.702 31.8661 155.598 31.8661H153.999ZM151.334 28.9151C151.321 28.9671 151.36 28.9931 151.399 28.9931H153.115C153.154 28.9931 153.193 28.9671 153.18 28.9151L152.309 25.2231C152.296 25.1581 152.244 25.1711 152.231 25.2231L151.334 28.9151Z" fill="#B1B4C5"/>
<path d="M161.457 22.7661C161.548 22.7661 161.613 22.8311 161.613 22.9221V24.1961C161.613 24.2871 161.548 24.3521 161.457 24.3521H159.481C159.442 24.3521 159.416 24.3781 159.416 24.4171V31.7101C159.416 31.8011 159.351 31.8661 159.26 31.8661H157.739C157.648 31.8661 157.583 31.8011 157.583 31.7101V24.4171C157.583 24.3781 157.557 24.3521 157.518 24.3521H155.607C155.516 24.3521 155.451 24.2871 155.451 24.1961V22.9221C155.451 22.8311 155.516 22.7661 155.607 22.7661H161.457Z" fill="#B1B4C5"/>
<path d="M165.336 31.9701C163.555 31.9701 162.385 30.9431 162.385 29.4221V29.0711C162.385 28.9801 162.45 28.9151 162.541 28.9151H164.036C164.127 28.9151 164.192 28.9801 164.192 29.0711V29.3311C164.192 29.9291 164.673 30.3971 165.414 30.3971C166.116 30.3971 166.454 29.9811 166.454 29.4741C166.454 28.8631 165.934 28.5901 164.868 28.0441C163.711 27.4591 162.398 26.7831 162.398 25.1581C162.398 23.6241 163.555 22.6621 165.232 22.6621C167 22.6621 168.209 23.7281 168.209 25.3011V25.5611C168.209 25.6521 168.144 25.7171 168.053 25.7171H166.558C166.467 25.7171 166.402 25.6521 166.402 25.5611V25.3271C166.402 24.7291 165.96 24.2351 165.206 24.2351C164.582 24.2351 164.205 24.5731 164.205 25.1451C164.205 25.7561 164.647 26.0291 165.817 26.6141C167.078 27.3291 168.274 27.8751 168.274 29.3961C168.274 30.9691 167.104 31.9701 165.336 31.9701Z" fill="#B1B4C5"/>
<path d="M47.2522 145.318C47.2652 147.047 46.0042 147.866 44.3922 147.866H41.4802C41.3892 147.866 41.3242 147.801 41.3242 147.71V138.922C41.3242 138.831 41.3892 138.766 41.4802 138.766H44.1972C45.9912 138.766 47.1222 139.533 47.1222 141.262C47.1222 142.146 46.7842 142.744 46.1212 143.121C46.0822 143.147 46.0692 143.173 46.1082 143.199C46.8362 143.615 47.2392 144.304 47.2522 145.318ZM43.2222 140.339C43.1832 140.339 43.1572 140.365 43.1572 140.404V142.445C43.1572 142.484 43.1832 142.51 43.2222 142.51H44.2102C44.9122 142.51 45.3282 142.107 45.3282 141.431C45.3282 140.742 44.9122 140.339 44.2102 140.339H43.2222ZM44.3142 146.28C45.0032 146.28 45.4192 145.864 45.4192 145.11C45.4192 144.369 45.0032 143.914 44.3142 143.914H43.2222C43.1832 143.914 43.1572 143.94 43.1572 143.979V146.215C43.1572 146.254 43.1832 146.28 43.2222 146.28H44.3142Z" fill="#B1B4C5"/>
<path d="M53.9335 140.183C53.9335 140.274 53.8685 140.339 53.7775 140.339H50.2935C50.2545 140.339 50.2285 140.365 50.2285 140.404V142.432C50.2285 142.471 50.2545 142.497 50.2935 142.497H52.4645C52.5555 142.497 52.6205 142.562 52.6205 142.653V143.914C52.6205 144.005 52.5555 144.07 52.4645 144.07H50.2935C50.2545 144.07 50.2285 144.096 50.2285 144.135V146.228C50.2285 146.267 50.2545 146.293 50.2935 146.293H53.7775C53.8685 146.293 53.9335 146.358 53.9335 146.449V147.71C53.9335 147.801 53.8685 147.866 53.7775 147.866H48.5515C48.4605 147.866 48.3955 147.801 48.3955 147.71V138.922C48.3955 138.831 48.4605 138.766 48.5515 138.766H53.7775C53.8685 138.766 53.9335 138.831 53.9335 138.922V140.183Z" fill="#B1B4C5"/>
<path d="M59.9987 147.866C59.9077 147.866 59.8557 147.827 59.8297 147.736L59.5307 146.462C59.5177 146.423 59.5047 146.41 59.4657 146.41H57.0347C56.9957 146.41 56.9827 146.423 56.9697 146.462L56.6707 147.736C56.6447 147.827 56.5797 147.866 56.4887 147.866H54.9157C54.8117 147.866 54.7597 147.814 54.7857 147.697L57.1257 138.896C57.1517 138.805 57.2167 138.766 57.3077 138.766H59.1927C59.2837 138.766 59.3487 138.805 59.3747 138.896L61.7277 147.697C61.7537 147.814 61.7017 147.866 61.5977 147.866H59.9987ZM57.3337 144.915C57.3207 144.967 57.3597 144.993 57.3987 144.993H59.1147C59.1537 144.993 59.1927 144.967 59.1797 144.915L58.3087 141.223C58.2957 141.158 58.2437 141.171 58.2307 141.223L57.3337 144.915Z" fill="#B1B4C5"/>
<path d="M67.4568 138.766C67.5478 138.766 67.6128 138.831 67.6128 138.922V140.196C67.6128 140.287 67.5478 140.352 67.4568 140.352H65.4808C65.4418 140.352 65.4158 140.378 65.4158 140.417V147.71C65.4158 147.801 65.3508 147.866 65.2598 147.866H63.7388C63.6478 147.866 63.5828 147.801 63.5828 147.71V140.417C63.5828 140.378 63.5568 140.352 63.5178 140.352H61.6068C61.5158 140.352 61.4508 140.287 61.4508 140.196V138.922C61.4508 138.831 61.5158 138.766 61.6068 138.766H67.4568Z" fill="#B1B4C5"/>
<path d="M71.3364 147.97C69.5554 147.97 68.3854 146.943 68.3854 145.422V145.071C68.3854 144.98 68.4504 144.915 68.5414 144.915H70.0364C70.1274 144.915 70.1924 144.98 70.1924 145.071V145.331C70.1924 145.929 70.6734 146.397 71.4144 146.397C72.1164 146.397 72.4544 145.981 72.4544 145.474C72.4544 144.863 71.9344 144.59 70.8684 144.044C69.7114 143.459 68.3984 142.783 68.3984 141.158C68.3984 139.624 69.5554 138.662 71.2324 138.662C73.0004 138.662 74.2094 139.728 74.2094 141.301V141.561C74.2094 141.652 74.1444 141.717 74.0534 141.717H72.5584C72.4674 141.717 72.4024 141.652 72.4024 141.561V141.327C72.4024 140.729 71.9604 140.235 71.2064 140.235C70.5824 140.235 70.2054 140.573 70.2054 141.145C70.2054 141.756 70.6474 142.029 71.8174 142.614C73.0784 143.329 74.2744 143.875 74.2744 145.396C74.2744 146.969 73.1044 147.97 71.3364 147.97Z" fill="#B1B4C5"/>
<path d="M242.252 145.318C242.265 147.047 241.004 147.866 239.392 147.866H236.48C236.389 147.866 236.324 147.801 236.324 147.71V138.922C236.324 138.831 236.389 138.766 236.48 138.766H239.197C240.991 138.766 242.122 139.533 242.122 141.262C242.122 142.146 241.784 142.744 241.121 143.121C241.082 143.147 241.069 143.173 241.108 143.199C241.836 143.615 242.239 144.304 242.252 145.318ZM238.222 140.339C238.183 140.339 238.157 140.365 238.157 140.404V142.445C238.157 142.484 238.183 142.51 238.222 142.51H239.21C239.912 142.51 240.328 142.107 240.328 141.431C240.328 140.742 239.912 140.339 239.21 140.339H238.222ZM239.314 146.28C240.003 146.28 240.419 145.864 240.419 145.11C240.419 144.369 240.003 143.914 239.314 143.914H238.222C238.183 143.914 238.157 143.94 238.157 143.979V146.215C238.157 146.254 238.183 146.28 238.222 146.28H239.314Z" fill="#B1B4C5"/>
<path d="M248.934 140.183C248.934 140.274 248.869 140.339 248.778 140.339H245.294C245.255 140.339 245.229 140.365 245.229 140.404V142.432C245.229 142.471 245.255 142.497 245.294 142.497H247.465C247.556 142.497 247.621 142.562 247.621 142.653V143.914C247.621 144.005 247.556 144.07 247.465 144.07H245.294C245.255 144.07 245.229 144.096 245.229 144.135V146.228C245.229 146.267 245.255 146.293 245.294 146.293H248.778C248.869 146.293 248.934 146.358 248.934 146.449V147.71C248.934 147.801 248.869 147.866 248.778 147.866H243.552C243.461 147.866 243.396 147.801 243.396 147.71V138.922C243.396 138.831 243.461 138.766 243.552 138.766H248.778C248.869 138.766 248.934 138.831 248.934 138.922V140.183Z" fill="#B1B4C5"/>
<path d="M254.999 147.866C254.908 147.866 254.856 147.827 254.83 147.736L254.531 146.462C254.518 146.423 254.505 146.41 254.466 146.41H252.035C251.996 146.41 251.983 146.423 251.97 146.462L251.671 147.736C251.645 147.827 251.58 147.866 251.489 147.866H249.916C249.812 147.866 249.76 147.814 249.786 147.697L252.126 138.896C252.152 138.805 252.217 138.766 252.308 138.766H254.193C254.284 138.766 254.349 138.805 254.375 138.896L256.728 147.697C256.754 147.814 256.702 147.866 256.598 147.866H254.999ZM252.334 144.915C252.321 144.967 252.36 144.993 252.399 144.993H254.115C254.154 144.993 254.193 144.967 254.18 144.915L253.309 141.223C253.296 141.158 253.244 141.171 253.231 141.223L252.334 144.915Z" fill="#B1B4C5"/>
<path d="M262.457 138.766C262.548 138.766 262.613 138.831 262.613 138.922V140.196C262.613 140.287 262.548 140.352 262.457 140.352H260.481C260.442 140.352 260.416 140.378 260.416 140.417V147.71C260.416 147.801 260.351 147.866 260.26 147.866H258.739C258.648 147.866 258.583 147.801 258.583 147.71V140.417C258.583 140.378 258.557 140.352 258.518 140.352H256.607C256.516 140.352 256.451 140.287 256.451 140.196V138.922C256.451 138.831 256.516 138.766 256.607 138.766H262.457Z" fill="#B1B4C5"/>
<path d="M266.336 147.97C264.555 147.97 263.385 146.943 263.385 145.422V145.071C263.385 144.98 263.45 144.915 263.541 144.915H265.036C265.127 144.915 265.192 144.98 265.192 145.071V145.331C265.192 145.929 265.673 146.397 266.414 146.397C267.116 146.397 267.454 145.981 267.454 145.474C267.454 144.863 266.934 144.59 265.868 144.044C264.711 143.459 263.398 142.783 263.398 141.158C263.398 139.624 264.555 138.662 266.232 138.662C268 138.662 269.209 139.728 269.209 141.301V141.561C269.209 141.652 269.144 141.717 269.053 141.717H267.558C267.467 141.717 267.402 141.652 267.402 141.561V141.327C267.402 140.729 266.96 140.235 266.206 140.235C265.582 140.235 265.205 140.573 265.205 141.145C265.205 141.756 265.647 142.029 266.817 142.614C268.078 143.329 269.274 143.875 269.274 145.396C269.274 146.969 268.104 147.97 266.336 147.97Z" fill="#B1B4C5"/>
<path d="M129.637 49.8661H175.637C176.741 49.8661 177.637 50.7615 177.637 51.8661C177.637 52.9707 176.741 53.8661 175.637 53.8661H129.637C128.532 53.8661 127.637 52.9707 127.637 51.8661C127.637 50.7615 128.532 49.8661 129.637 49.8661Z" fill="#B1B4C5"/>
<path fill-rule="evenodd" clip-rule="evenodd" d="M135.674 41.881L127.084 50.609C126.368 51.336 126.374 52.505 127.097 53.225C127.268 53.3956 127.472 53.5305 127.695 53.6222C127.919 53.7139 128.158 53.7605 128.4 53.7593C128.641 53.7581 128.88 53.7091 129.103 53.6152C129.326 53.5213 129.528 53.3843 129.697 53.212L138.287 44.484C138.631 44.1347 138.823 43.6635 138.82 43.1733C138.818 42.6832 138.622 42.2139 138.274 41.868C138.103 41.6975 137.9 41.5625 137.676 41.4708C137.453 41.3791 137.213 41.3326 136.971 41.3338C136.73 41.335 136.491 41.3839 136.268 41.4779C136.045 41.5718 135.844 41.7088 135.674 41.881Z" fill="#B1B4C5"/>
<path fill-rule="evenodd" clip-rule="evenodd" d="M138.287 59.2481L129.697 50.5201C129.528 50.3478 129.326 50.2108 129.103 50.1169C128.88 50.023 128.641 49.974 128.4 49.9728C128.158 49.9716 127.919 50.0182 127.695 50.1099C127.472 50.2016 127.268 50.3365 127.097 50.5071C126.374 51.2271 126.368 52.3961 127.084 53.1231L135.674 61.8511C135.844 62.0233 136.045 62.1603 136.268 62.2542C136.491 62.3482 136.73 62.3971 136.971 62.3983C137.213 62.3995 137.453 62.353 137.676 62.2613C137.9 62.1696 138.103 62.0346 138.274 61.8641C138.622 61.5182 138.818 61.0489 138.82 60.5588C138.823 60.0686 138.631 59.5974 138.287 59.2481Z" fill="#B1B4C5"/>
<path d="M108.618 158.035L82.2331 120.354C81.5995 119.449 81.8194 118.202 82.7242 117.568C83.6291 116.935 84.8761 117.155 85.5097 118.06L111.894 155.741C112.528 156.645 112.308 157.892 111.403 158.526C110.498 159.16 109.251 158.94 108.618 158.035Z" fill="#B1B4C5"/>
<path fill-rule="evenodd" clip-rule="evenodd" d="M98.6162 157.67L110.693 159.7C111.699 159.87 112.653 159.194 112.828 158.189C112.87 157.951 112.864 157.707 112.811 157.471C112.757 157.235 112.658 157.013 112.519 156.815C112.379 156.618 112.202 156.45 111.997 156.322C111.793 156.193 111.565 156.107 111.326 156.067L99.2497 154.036C98.7663 153.955 98.2703 154.068 97.8702 154.351C97.4701 154.634 97.1983 155.064 97.1142 155.547C97.0727 155.785 97.0787 156.029 97.1319 156.265C97.185 156.501 97.2842 156.724 97.4238 156.921C97.5634 157.118 97.7406 157.286 97.9452 157.414C98.1498 157.543 98.3779 157.63 98.6162 157.67Z" fill="#B1B4C5"/>
<path fill-rule="evenodd" clip-rule="evenodd" d="M111.341 145.568L109.119 157.611C109.075 157.848 109.078 158.092 109.129 158.328C109.18 158.565 109.277 158.789 109.414 158.987C109.552 159.186 109.728 159.355 109.931 159.486C110.134 159.616 110.361 159.705 110.599 159.748C111.604 159.927 112.565 159.262 112.75 158.258L114.972 146.215C115.016 145.978 115.013 145.734 114.962 145.498C114.911 145.261 114.814 145.037 114.676 144.839C114.539 144.64 114.363 144.471 114.16 144.34C113.957 144.21 113.729 144.121 113.492 144.078C113.009 143.992 112.512 144.1 112.109 144.379C111.706 144.659 111.43 145.086 111.341 145.568Z" fill="#B1B4C5"/>
<path d="M223.618 119.698L197.233 157.379C196.6 158.284 196.819 159.531 197.724 160.164C198.629 160.798 199.876 160.578 200.51 159.673L226.894 121.992C227.528 121.087 227.308 119.84 226.403 119.207C225.498 118.573 224.251 118.793 223.618 119.698Z" fill="#B1B4C5"/>
<path fill-rule="evenodd" clip-rule="evenodd" d="M213.616 120.063L225.693 118.033C226.699 117.863 227.653 118.539 227.828 119.544C227.87 119.782 227.864 120.026 227.811 120.261C227.757 120.497 227.658 120.72 227.519 120.917C227.379 121.115 227.202 121.282 226.997 121.411C226.793 121.539 226.565 121.626 226.326 121.666L214.25 123.696C213.766 123.778 213.27 123.665 212.87 123.381C212.47 123.098 212.198 122.668 212.114 122.185C212.073 121.947 212.079 121.703 212.132 121.468C212.185 121.232 212.284 121.009 212.424 120.812C212.563 120.615 212.741 120.447 212.945 120.318C213.15 120.19 213.378 120.103 213.616 120.063Z" fill="#B1B4C5"/>
<path fill-rule="evenodd" clip-rule="evenodd" d="M226.341 132.165L224.119 120.122C224.075 119.884 224.078 119.64 224.129 119.404C224.18 119.168 224.277 118.944 224.414 118.745C224.552 118.547 224.728 118.377 224.931 118.247C225.134 118.116 225.361 118.027 225.599 117.985C226.604 117.805 227.565 118.471 227.75 119.475L229.972 131.517C230.016 131.755 230.013 131.999 229.962 132.235C229.911 132.471 229.814 132.695 229.676 132.894C229.539 133.092 229.363 133.262 229.16 133.393C228.957 133.523 228.729 133.612 228.492 133.655C228.009 133.741 227.512 133.632 227.109 133.353C226.706 133.074 226.43 132.647 226.341 132.165Z" fill="#B1B4C5"/>
<defs>
<linearGradient id="paint0_linear_2365_4" x1="5319.54" y1="0.866089" x2="5319.54" y2="10477.9" gradientUnits="userSpaceOnUse">
<stop stop-color="white" stop-opacity="0.097"/>
<stop offset="1" stop-color="white" stop-opacity="0"/>
</linearGradient>
<linearGradient id="paint1_linear_2365_4" x1="5565.24" y1="0.866089" x2="5565.24" y2="10477.9" gradientUnits="userSpaceOnUse">
<stop stop-color="white" stop-opacity="0.097"/>
<stop offset="1" stop-color="white" stop-opacity="0"/>
</linearGradient>
<linearGradient id="paint2_linear_2365_4" x1="5467.24" y1="160.866" x2="5467.24" y2="10637.9" gradientUnits="userSpaceOnUse">
<stop stop-color="white" stop-opacity="0.097"/>
<stop offset="1" stop-color="white" stop-opacity="0"/>
</linearGradient>
</defs>
</svg>
